<svg width="9" height="9" viewBox="0 0 9 9" fill="none" xmlns="http://www.w3.org/2000/svg">
<path d="M8.26691 5.41848C8.22381 5.37522 8.16863 5.34599 8.10862 5.33464C8.04862 5.32329 7.98658 5.33034 7.93065 5.35486C7.241 5.65558 6.47676 5.74156 5.73753 5.60161C4.99831 5.46166 4.31839 5.10226 3.78639 4.57026C3.25439 4.03827 2.895 3.35835 2.75504 2.61912C2.61509 1.87989 2.70108 1.11565 3.00179 0.426005C3.02667 0.370047 3.034 0.307863 3.02283 0.247652C3.01165 0.187442 2.98249 0.132032 2.93918 0.0887296C2.89588 0.0454271 2.84047 0.016265 2.78026 0.00508835C2.72005 -0.00608832 2.65787 0.0012453 2.60191 0.0261223C1.95385 0.310201 1.38494 0.748176 0.944554 1.30202C0.504173 1.85586 0.205641 2.50883 0.0748777 3.20423C-0.0558855 3.89962 -0.0149264 4.61643 0.194198 5.2924C0.403323 5.96838 0.774292 6.58309 1.2749 7.08317C1.7755 7.58324 2.3906 7.95356 3.0668 8.16197C3.743 8.37038 4.45984 8.41058 5.1551 8.27908C5.85036 8.14758 6.50301 7.84836 7.05639 7.40739C7.60977 6.96642 8.04714 6.39704 8.33053 5.74869C8.35373 5.69352 8.36007 5.63271 8.34875 5.57395C8.33742 5.51518 8.30895 5.46108 8.26691 5.41848Z" fill="#8D8E9A"/>
</svg>
